<svg width="171" height="273" viewBox="0 0 171 273" fill="none" xmlns="http://www.w3.org/2000/svg">
<g clip-path="url(#clip0_99_453)">
<path d="M141.54 63.6402L85.5498 77.2502C84.4298 77.5202 83.2498 77.5202 82.1298 77.2502L26.1398 63.6402C21.5898 62.5302 17.1998 65.9802 17.1898 70.6602L17.0098 164.02C17.0098 167.37 19.2898 170.28 22.5398 171.07L83.7098 185.92L83.7298 185.85L83.7498 185.92L145.12 171.07C148.37 170.28 150.66 167.37 150.66 164.02L150.48 70.6602C150.48 65.9702 146.08 62.5302 141.53 63.6402H141.54ZM29.0098 67.3002L77.0198 78.9602C80.2698 79.7502 82.5498 82.6602 82.5498 86.0002V173.47C82.5498 178.16 78.1598 181.61 73.5998 180.51L25.4298 168.82C22.1798 168.03 19.8898 165.12 19.8998 161.77L20.0598 74.3202C20.0598 69.6302 24.4598 66.1902 29.0098 67.3002ZM85.1398 173.43V86.0002C85.1398 82.6602 87.4298 79.7502 90.6698 78.9602L138.67 67.3002C143.22 66.1902 147.61 69.6402 147.62 74.3202L147.79 161.76C147.79 165.11 145.51 168.02 142.25 168.81L94.0798 180.46C89.5198 181.56 85.1398 178.11 85.1398 173.42V173.43Z" fill="white"/>
<path d="M95.3594 14.01C96.5494 11.73 96.9294 9.02 96.2494 6.33C95.5694 3.64 93.9394 1.44 91.8194 0C90.6394 2.28 90.2494 4.99 90.9294 7.68C91.6094 10.37 93.2394 12.57 95.3594 14.01Z" fill="white"/>
<path d="M96.0398 30.7598C98.1998 29.3698 99.8798 27.2098 100.63 24.5398C101.38 21.8698 101.06 19.1498 99.9298 16.8398C97.7698 18.2298 96.0898 20.3898 95.3398 23.0598C94.5898 25.7298 94.9098 28.4498 96.0398 30.7598Z" fill="white"/>
<path d="M105.141 7.72978C105.901 5.05978 105.591 2.33979 104.471 0.0297852C102.301 1.41979 100.621 3.56978 99.8607 6.23978C99.1007 8.90978 99.4107 11.6298 100.531 13.9398C102.701 12.5598 104.381 10.3998 105.141 7.72978Z" fill="white"/>
<path d="M112.129 13.3899C114.119 11.4599 115.209 8.94988 115.399 6.37988C112.829 6.49988 110.289 7.51988 108.309 9.44988C106.319 11.3799 105.229 13.8899 105.039 16.4499C107.609 16.3299 110.149 15.3099 112.139 13.3799L112.129 13.3899Z" fill="white"/>
<path d="M79.9196 7.68C80.5996 4.99 80.2196 2.28 79.0296 0C76.8996 1.45 75.2796 3.64 74.5996 6.33C73.9196 9.02 74.2996 11.73 75.4896 14.01C77.6196 12.56 79.2396 10.37 79.9196 7.68Z" fill="white"/>
<path d="M74.2191 50.9902C75.6591 43.9902 74.6391 36.4602 70.7791 29.7802C66.9291 23.1002 60.9091 18.4602 54.1291 16.2002C52.6891 23.2002 53.7091 30.7302 57.5591 37.4102C61.4091 44.0902 67.4291 48.7302 74.2091 50.9902H74.2191Z" fill="white"/>
<path d="M70.3301 13.9398C71.4501 11.6198 71.7601 8.90978 71.0001 6.23978C70.2401 3.56978 68.5601 1.41979 66.3901 0.0297852C65.2701 2.34979 64.9601 5.05978 65.7201 7.72978C66.4801 10.3998 68.1601 12.5498 70.3301 13.9398Z" fill="white"/>
<path d="M100.299 29.7802C96.449 36.4602 95.429 43.9902 96.859 50.9902C103.649 48.7402 109.659 44.0902 113.509 37.4102C117.359 30.7302 118.379 23.2002 116.939 16.2002C110.159 18.4602 104.149 23.1002 100.289 29.7802H100.299Z" fill="white"/>
<path d="M70.2305 24.5398C70.9805 27.2098 72.6605 29.3698 74.8205 30.7598C75.9505 28.4498 76.2605 25.7298 75.5205 23.0598C74.7705 20.3898 73.0905 18.2298 70.9305 16.8398C69.8005 19.1498 69.4805 21.8698 70.2305 24.5398Z" fill="white"/>
<path d="M65.8209 16.4601C65.6309 13.9001 64.5409 11.3901 62.5509 9.46014C60.5609 7.53014 58.0209 6.51014 55.4609 6.39014C55.6509 8.96014 56.7409 11.4601 58.7309 13.4001C60.7209 15.3301 63.2609 16.3501 65.8309 16.4701L65.8209 16.4601Z" fill="white"/>
<path d="M137.199 53.25C139.769 53.15 142.309 52.14 144.309 50.22C146.309 48.3 147.409 45.8 147.619 43.23C145.049 43.33 142.509 44.34 140.509 46.26C138.509 48.18 137.409 50.68 137.199 53.25Z" fill="white"/>
<path d="M104.23 60.3602C111.23 61.8002 118.76 60.7802 125.44 56.9302C132.12 53.0802 136.76 47.0602 139.02 40.2802C132.02 38.8402 124.49 39.8602 117.81 43.7202C111.13 47.5702 106.49 53.5902 104.23 60.3702V60.3602Z" fill="white"/>
<path d="M123.939 32.5898C121.369 32.6998 118.829 33.7098 116.829 35.6298C114.829 37.5598 113.729 40.0598 113.539 42.6198C116.109 42.5098 118.649 41.4998 120.649 39.5798C122.649 37.6498 123.749 35.1498 123.939 32.5898Z" fill="white"/>
<path d="M139.82 57.7C142.1 58.9 144.8 59.3 147.49 58.63C150.18 57.96 152.39 56.35 153.85 54.23C151.57 53.03 148.87 52.63 146.18 53.3C143.49 53.97 141.28 55.58 139.82 57.7Z" fill="white"/>
<path d="M132.76 27.9698C134.81 26.0998 135.97 23.6198 136.24 21.0698C133.67 21.1098 131.1 22.0498 129.06 23.9198C127.01 25.7898 125.85 28.2698 125.58 30.8198C128.15 30.7798 130.72 29.8398 132.76 27.9698Z" fill="white"/>
<path d="M125.94 22.1101C126.78 19.4701 126.55 16.7401 125.5 14.3901C123.29 15.7101 121.54 17.8101 120.71 20.4501C119.87 23.0901 120.1 25.8201 121.15 28.1701C123.36 26.8501 125.11 24.7501 125.95 22.1101H125.94Z" fill="white"/>
<path d="M130.69 62.2202C133.42 61.7102 135.71 60.2202 137.29 58.1902C135.09 56.8702 132.41 56.3102 129.68 56.8302C126.95 57.3402 124.66 58.8302 123.08 60.8602C125.29 62.1802 127.96 62.7402 130.69 62.2302V62.2202Z" fill="white"/>
<path d="M128.09 35.3399C130.34 36.5899 133.03 37.0599 135.74 36.4599C138.45 35.8599 140.69 34.2999 142.2 32.2199C139.95 30.9699 137.26 30.4999 134.55 31.0999C131.84 31.6999 129.6 33.2599 128.09 35.3399Z" fill="white"/>
<path d="M92.3794 48.0498C90.1494 49.3298 88.3694 51.3998 87.4894 54.0298C86.6094 56.6598 86.7894 59.3898 87.7994 61.7498C90.0294 60.4698 91.8194 58.3998 92.6894 55.7698C93.5694 53.1398 93.3894 50.4098 92.3794 48.0498Z" fill="white"/>
<path d="M75.0093 57.6399C72.9293 55.7999 70.3493 54.8999 67.7793 54.8999C68.0893 57.4499 69.2893 59.9099 71.3693 61.7499C73.4493 63.5899 76.0293 64.4899 78.5993 64.4799C78.2893 61.9299 77.0893 59.4699 75.0093 57.6399Z" fill="white"/>
<path d="M66.8603 60.3602C64.6003 53.5802 59.9603 47.5702 53.2803 43.7102C46.6003 39.8602 39.0703 38.8402 32.0703 40.2702C34.3203 47.0602 38.9703 53.0702 45.6503 56.9202C52.3303 60.7702 59.8603 61.7902 66.8603 60.3502V60.3602Z" fill="white"/>
<path d="M78.4108 48.0498C77.4008 50.4198 77.2208 53.1398 78.1008 55.7698C78.9808 58.3998 80.7608 60.4698 82.9908 61.7498C84.0008 59.3898 84.1808 56.6598 83.3008 54.0298C82.4208 51.3998 80.6408 49.3298 78.4108 48.0498Z" fill="white"/>
<path d="M69.63 64.8999C66.91 64.3499 64.23 64.8599 62 66.1499C63.54 68.2099 65.81 69.7299 68.53 70.2799C71.25 70.8299 73.93 70.3199 76.16 69.0299C74.62 66.9699 72.34 65.4499 69.63 64.8999Z" fill="white"/>
<path d="M108.779 66.1499C106.549 64.8599 103.869 64.3499 101.149 64.8999C98.4291 65.4499 96.1591 66.9799 94.6191 69.0299C96.8491 70.3199 99.5291 70.8299 102.249 70.2799C104.969 69.7299 107.239 68.1999 108.779 66.1499Z" fill="white"/>
<path d="M103.009 54.8999C100.439 54.8999 97.8594 55.7999 95.7794 57.6399C93.6994 59.4799 92.4995 61.9299 92.1895 64.4799C94.7595 64.4799 97.3394 63.5799 99.4194 61.7499C101.499 59.9199 102.699 57.4599 103.009 54.8999Z" fill="white"/>
<path d="M85.2902 6.37988C80.5402 11.7199 77.6602 18.7599 77.6602 26.4599C77.6602 34.1599 80.5402 41.1999 85.2902 46.5399C90.0302 41.1999 92.9202 34.1599 92.9202 26.4599C92.9202 18.7599 90.0402 11.7199 85.2902 6.37988Z" fill="white"/>
<path d="M54.0104 35.6298C52.0104 33.6998 49.4704 32.6898 46.9004 32.5898C47.1004 35.1498 48.2004 37.6598 50.1904 39.5798C52.1904 41.5098 54.7304 42.5198 57.3004 42.6198C57.1004 40.0598 56.0004 37.5498 54.0104 35.6298Z" fill="white"/>
<path d="M49.709 28.1701C50.759 25.8201 50.9791 23.1001 50.1491 20.4501C49.3091 17.8101 47.5591 15.7101 45.3591 14.3901C44.3091 16.7401 44.079 19.4601 44.919 22.1101C45.759 24.7501 47.5091 26.8501 49.7191 28.1701H49.709Z" fill="white"/>
<path d="M45.2791 30.8301C45.0091 28.2701 43.8491 25.8001 41.7991 23.9301C39.7491 22.0601 37.1891 21.1101 34.6191 21.0801C34.8791 23.6401 36.0491 26.1101 38.0991 27.9801C40.1491 29.8501 42.7091 30.8001 45.2791 30.8301Z" fill="white"/>
<path d="M33.5703 58.1901C35.1403 60.2201 37.4403 61.7101 40.1703 62.2201C42.9003 62.7301 45.5703 62.1801 47.7803 60.8501C46.2103 58.8201 43.9103 57.3301 41.1803 56.8201C38.4503 56.3101 35.7803 56.8601 33.5703 58.1801V58.1901Z" fill="white"/>
<path d="M35.1202 36.4599C37.8302 37.0599 40.5202 36.5899 42.7702 35.3399C41.2602 33.2599 39.0102 31.6999 36.3102 31.0999C33.6002 30.4999 30.9102 30.9699 28.6602 32.2199C30.1702 34.2999 32.4202 35.8599 35.1202 36.4599Z" fill="white"/>
<path d="M23.36 58.63C26.05 59.3 28.76 58.9 31.03 57.7C29.57 55.58 27.37 53.97 24.67 53.3C21.98 52.63 19.27 53.03 17 54.23C18.46 56.35 20.66 57.96 23.36 58.63Z" fill="white"/>
<path d="M33.6602 53.25C33.4602 50.69 32.3502 48.19 30.3502 46.26C28.3502 44.34 25.8102 43.33 23.2402 43.23C23.4402 45.79 24.5502 48.3 26.5502 50.22C28.5502 52.14 31.0902 53.15 33.6602 53.25Z" fill="white"/>
<path d="M22.15 208.75C9.95 208.75 0 218.68 0 230.9C0 243.12 9.95 253.05 22.15 253.05H38.15V208.76H22.15V208.75ZM31.04 245.93H22.15C13.86 245.93 7.13 239.18 7.13 230.89C7.13 222.6 13.87 215.85 22.15 215.85H31.04V245.92V245.93Z" fill="white"/>
<path d="M79.0805 245.93V253.04H54.4205C48.3905 253.04 43.4805 248.14 43.4805 242.09C43.4805 236.04 48.3805 231.15 54.4205 231.15H67.4205C69.5405 231.15 71.2605 229.43 71.2605 227.31V215.85H53.1005C51.7405 215.85 50.6405 216.96 50.6405 218.31C50.6405 219.66 51.7405 220.77 53.0905 220.77H64.1505V227.88H53.0905C47.8105 227.88 43.5305 223.58 43.5305 218.31C43.5305 213.04 47.8205 208.74 53.1005 208.74H71.3105V207.6C71.3105 205.48 69.5905 203.76 67.4705 203.76H43.4805V196.65H67.4705C73.5005 196.65 78.4205 201.57 78.4205 207.6V208.84H78.3705V227.31C78.3705 233.34 73.4505 238.26 67.4205 238.26H54.4205C52.3105 238.26 50.5905 239.98 50.5905 242.09C50.5905 244.2 52.3105 245.93 54.4205 245.93H79.0805Z" fill="white"/>
<path d="M121.429 252.86H105.429C93.2191 252.86 83.2891 242.93 83.2891 230.72C83.2891 218.51 93.2191 208.58 105.429 208.58H121.429V252.87V252.86ZM105.429 215.68C97.1391 215.68 90.3991 222.42 90.3991 230.71C90.3991 239 97.1391 245.74 105.429 245.74H114.319V215.67H105.429V215.68Z" fill="white"/>
<path d="M161.129 227.34H159.629V208.4H125.109V215.46H129.789V216.28C129.789 218.65 127.869 220.57 125.519 220.57V227.89H128.279C129.109 227.89 129.789 228.57 129.789 229.4C129.789 230.23 129.109 230.91 128.279 230.91H125.519V237.54C125.519 237.69 125.519 237.82 125.529 237.97C125.959 246.34 132.909 253.02 141.399 253.02H159.629V234.4H161.129C162.589 234.4 163.789 235.59 163.789 237.06V245.85H170.849V237.06C170.849 231.7 166.479 227.34 161.129 227.34ZM152.569 227.34H148.899C147.349 227.34 146.089 226.08 146.089 224.53V215.46H152.569V227.34ZM152.569 245.96H141.399C136.519 245.96 132.559 242 132.559 237.13V236.82C135.119 235.35 136.859 232.57 136.859 229.4C136.859 227.03 135.909 224.9 134.359 223.36C135.929 221.43 136.859 218.96 136.859 216.29V215.47H139.039V224.54C139.039 229.98 143.469 234.41 148.909 234.41H152.579V245.97L152.569 245.96Z" fill="white"/>
<path d="M126.86 238.14H126.85V237.71C126.85 237.86 126.85 237.99 126.86 238.14Z" fill="white"/>
<path d="M121.431 272.21H91.1406V269.11C91.1406 261.11 97.6506 254.6 105.651 254.6H121.431V260.79H105.651C102.161 260.79 99.1606 262.95 97.9306 266.01H121.431V272.2V272.21Z" fill="white"/>
</g>
<defs>
<clipPath id="clip0_99_453">
<rect width="170.85" height="272.21" fill="white"/>
</clipPath>
</defs>
</svg>
