<svg width="423" height="180" viewBox="0 0 423 180" fill="none" xmlns="http://www.w3.org/2000/svg">
<path d="M32.1739 62.1835V2.14426H42.2966L62.6279 42.7136L82.8735 2.14426H93.082V62.1835H84.5034V17.1541L65.8878 53.778H59.2823L40.7525 17.2398V62.1835H32.1739Z" fill="white"/>
<path d="M119.459 63.2127C115.913 63.2127 112.967 62.6124 110.623 61.4116C108.278 60.2108 106.533 58.6097 105.39 56.6084C104.246 54.5499 103.674 52.3485 103.674 50.0041C103.674 47.1451 104.417 44.7149 105.904 42.7136C107.391 40.6552 109.507 39.0827 112.253 37.9963C114.998 36.9098 118.286 36.3666 122.118 36.3666H133.356C133.356 33.8507 132.984 31.7636 132.241 30.1054C131.497 28.4472 130.382 27.2178 128.895 26.4173C127.465 25.5596 125.635 25.1307 123.405 25.1307C120.831 25.1307 118.629 25.7597 116.799 27.0177C114.969 28.2184 113.825 30.0196 113.368 32.4212H104.789C105.132 29.3906 106.162 26.8175 107.877 24.7019C109.65 22.529 111.909 20.8708 114.655 19.7272C117.4 18.5264 120.316 17.926 123.405 17.926C127.465 17.926 130.868 18.6408 133.613 20.0703C136.358 21.4998 138.417 23.5297 139.79 26.16C141.22 28.7331 141.935 31.8208 141.935 35.4232V62.1835H134.471L133.785 54.893C133.156 56.0366 132.412 57.1231 131.554 58.1523C130.697 59.1815 129.667 60.0678 128.466 60.8112C127.322 61.5545 125.978 62.1263 124.434 62.5266C122.947 62.984 121.289 63.2127 119.459 63.2127ZM121.088 56.2654C122.919 56.2654 124.577 55.8937 126.064 55.1503C127.551 54.407 128.809 53.4063 129.839 52.1484C130.925 50.8332 131.726 49.3751 132.241 47.7741C132.813 46.1159 133.127 44.429 133.184 42.7136V42.4563H122.976C120.517 42.4563 118.515 42.7708 116.971 43.3998C115.484 43.9716 114.397 44.7721 113.711 45.8014C113.025 46.8306 112.681 48.0314 112.681 49.4037C112.681 50.8332 112.996 52.0626 113.625 53.0919C114.311 54.0639 115.284 54.8358 116.542 55.4076C117.8 55.9795 119.316 56.2654 121.088 56.2654Z" fill="white"/>
<path d="M152.884 62.1835V18.9552H160.605L161.377 27.1034C162.349 25.1593 163.608 23.5297 165.152 22.2145C166.696 20.8422 168.497 19.7844 170.556 19.041C172.672 18.2977 175.074 17.926 177.762 17.926V27.0177H174.674C172.901 27.0177 171.214 27.2464 169.613 27.7038C168.011 28.1041 166.581 28.8188 165.323 29.8481C164.122 30.8773 163.179 32.2782 162.492 34.0508C161.806 35.8234 161.463 38.0249 161.463 40.6552V62.1835H152.884Z" fill="white"/>
<path d="M212.835 62.1835L192.932 38.5109L210.947 18.9552H221.328L199.881 41.8559V35.4232L223.644 62.1835H212.835ZM185.641 62.1835V0.428851H194.219V62.1835H185.641Z" fill="white"/>
<path d="M247.171 63.2127C243.054 63.2127 239.393 62.2693 236.191 60.3823C232.988 58.4954 230.472 55.8651 228.641 52.4915C226.869 49.1178 225.982 45.201 225.982 40.7409C225.982 36.1665 226.869 32.1925 228.641 28.8188C230.472 25.388 232.988 22.7291 236.191 20.8422C239.393 18.8981 243.111 17.926 247.343 17.926C251.575 17.926 255.207 18.8695 258.238 20.7564C261.269 22.6434 263.614 25.1593 265.272 28.3042C266.931 31.392 267.76 34.8228 267.76 38.5967C267.76 39.1685 267.731 39.7974 267.674 40.4836C267.674 41.1126 267.646 41.8273 267.588 42.6279H232.245V36.5382H259.181C259.01 32.9358 257.809 30.134 255.578 28.1327C253.348 26.0742 250.574 25.0449 247.257 25.0449C244.912 25.0449 242.768 25.5882 240.823 26.6746C238.879 27.7038 237.306 29.2477 236.105 31.3062C234.961 33.3075 234.389 35.852 234.389 38.9397V41.3413C234.389 44.5434 234.961 47.2595 236.105 49.4895C237.306 51.6623 238.879 53.3206 240.823 54.4642C242.768 55.5506 244.884 56.0938 247.171 56.0938C249.916 56.0938 252.175 55.4934 253.948 54.2926C255.721 53.0919 257.037 51.4622 257.895 49.4037H266.473C265.73 52.034 264.471 54.407 262.699 56.5227C260.926 58.5812 258.724 60.2108 256.093 61.4116C253.519 62.6124 250.546 63.2127 247.171 63.2127Z" fill="white"/>
<path d="M293.962 62.1835C291.216 62.1835 288.843 61.7547 286.841 60.897C284.84 60.0393 283.296 58.6097 282.209 56.6084C281.122 54.6071 280.579 51.8911 280.579 48.4603V26.2457H273.116V18.9552H280.579L281.608 8.14818H289.158V18.9552H301.425V26.2457H289.158V48.546C289.158 51.0048 289.672 52.6916 290.702 53.6065C291.731 54.4642 293.504 54.893 296.02 54.893H300.996V62.1835H293.962Z" fill="white"/>
<path d="M311.485 62.1835V18.9552H320.064V62.1835H311.485ZM315.861 10.8071C314.202 10.8071 312.829 10.2924 311.743 9.2632C310.713 8.23395 310.199 6.91881 310.199 5.31776C310.199 3.77389 310.713 2.51593 311.743 1.54387C312.829 0.514622 314.202 0 315.861 0C317.462 0 318.806 0.514622 319.892 1.54387C320.979 2.51593 321.522 3.77389 321.522 5.31776C321.522 6.91881 320.979 8.23395 319.892 9.2632C318.806 10.2924 317.462 10.8071 315.861 10.8071Z" fill="white"/>
<path d="M332.331 62.1835V18.9552H340.052L340.567 26.3315C341.939 23.7584 343.884 21.7285 346.4 20.2418C348.917 18.6979 351.805 17.926 355.065 17.926C358.496 17.926 361.441 18.6122 363.901 19.9845C366.36 21.3568 368.276 23.4439 369.648 26.2457C371.021 28.9904 371.707 32.4498 371.707 36.6239V62.1835H363.129V37.4816C363.129 33.479 362.242 30.4485 360.469 28.39C358.696 26.3315 356.123 25.3023 352.749 25.3023C350.518 25.3023 348.516 25.8455 346.743 26.9319C344.971 27.9611 343.541 29.505 342.454 31.5635C341.425 33.622 340.91 36.1379 340.91 39.1113V62.1835H332.331Z" fill="white"/>
<path d="M400.267 82.0822C396.32 82.0822 392.832 81.5676 389.801 80.5384C386.77 79.5663 384.425 78.051 382.766 75.9925C381.108 73.934 380.279 71.4181 380.279 68.4447C380.279 66.9009 380.622 65.3284 381.308 63.7274C381.994 62.1835 383.109 60.6968 384.654 59.2673C386.198 57.8378 388.285 56.5513 390.916 55.4076L395.72 59.2673C392.803 60.3537 390.83 61.6403 389.801 63.127C388.829 64.6709 388.342 66.1575 388.342 67.587C388.342 69.3025 388.857 70.732 389.887 71.8756C390.916 73.0192 392.317 73.8769 394.09 74.4487C395.92 75.0205 397.979 75.3064 400.267 75.3064C402.497 75.3064 404.442 74.9919 406.1 74.3629C407.759 73.7339 409.045 72.8476 409.96 71.704C410.876 70.5604 411.333 69.2167 411.333 67.6728C411.333 65.843 410.647 64.2992 409.274 63.0412C407.902 61.8404 405.271 61.1257 401.382 60.897C398.122 60.6682 395.348 60.3537 393.061 59.9535C390.83 59.5532 388.914 59.0672 387.313 58.4954C385.769 57.9236 384.453 57.2946 383.367 56.6084C382.337 55.9223 381.451 55.2075 380.707 54.4642V52.4915L389.286 43.6571L396.235 46.0587L386.884 54.7215L388.686 50.8618C389.315 51.2621 389.915 51.6623 390.487 52.0626C391.059 52.4057 391.831 52.7202 392.803 53.0061C393.776 53.292 395.091 53.5493 396.749 53.778C398.408 54.0067 400.581 54.2355 403.269 54.4642C407.158 54.7501 410.275 55.4362 412.62 56.5227C415.022 57.6091 416.766 59.0672 417.853 60.897C418.939 62.7267 419.483 64.8996 419.483 67.4155C419.483 69.8743 418.796 72.2186 417.424 74.4487C416.108 76.6787 414.021 78.5085 411.161 79.938C408.359 81.3675 404.728 82.0822 400.267 82.0822ZM400.267 48.8891C396.606 48.8891 393.49 48.2029 390.916 46.8306C388.4 45.4583 386.455 43.5999 385.083 41.2555C383.767 38.9112 383.109 36.3095 383.109 33.4504C383.109 30.5342 383.767 27.9325 385.083 25.6453C386.455 23.3009 388.428 21.4426 391.002 20.0703C393.575 18.6408 396.664 17.926 400.267 17.926C403.87 17.926 406.929 18.6408 409.446 20.0703C412.019 21.4426 413.964 23.3009 415.279 25.6453C416.652 27.9325 417.338 30.5342 417.338 33.4504C417.338 36.3095 416.652 38.9112 415.279 41.2555C413.964 43.5999 412.019 45.4583 409.446 46.8306C406.929 48.2029 403.87 48.8891 400.267 48.8891ZM400.267 42.0275C403.069 42.0275 405.299 41.3127 406.958 39.8832C408.616 38.3965 409.446 36.2523 409.446 33.4504C409.446 30.6486 408.616 28.5329 406.958 27.1034C405.299 25.6167 403.069 24.8734 400.267 24.8734C397.464 24.8734 395.205 25.6167 393.49 27.1034C391.774 28.5329 390.916 30.6486 390.916 33.4504C390.916 36.2523 391.774 38.3965 393.49 39.8832C395.205 41.3127 397.464 42.0275 400.267 42.0275ZM407.301 25.7311L405.242 18.9552H423V24.8734L407.301 25.7311Z" fill="white"/>
<path d="M96.1131 138.262C92.5673 138.262 89.622 137.661 87.2771 136.461C84.9323 135.26 83.188 133.659 82.0442 131.658C80.9004 129.599 80.3285 127.398 80.3285 125.053C80.3285 122.194 81.0719 119.764 82.5589 117.763C84.0459 115.704 86.1619 114.132 88.9071 113.045C91.6522 111.959 94.9407 111.416 98.7725 111.416H110.01C110.01 108.9 109.639 106.813 108.895 105.154C108.152 103.496 107.037 102.267 105.55 101.466C104.12 100.609 102.29 100.18 100.059 100.18C97.4857 100.18 95.2838 100.809 93.4537 102.067C91.6236 103.268 90.4798 105.069 90.0223 107.47H81.4437C81.7868 104.44 82.8163 101.867 84.532 99.7509C86.3049 97.5781 88.5639 95.9199 91.3091 94.7762C94.0542 93.5755 96.971 92.9751 100.059 92.9751C104.12 92.9751 107.523 93.6898 110.268 95.1193C113.013 96.5488 115.072 98.5787 116.444 101.209C117.874 103.782 118.589 106.87 118.589 110.472V137.233H111.126L110.439 129.942C109.81 131.086 109.067 132.172 108.209 133.201C107.351 134.231 106.322 135.117 105.121 135.86C103.977 136.604 102.633 137.175 101.089 137.576C99.6017 138.033 97.9432 138.262 96.1131 138.262ZM97.743 131.314C99.5731 131.314 101.232 130.943 102.719 130.199C104.206 129.456 105.464 128.455 106.493 127.197C107.58 125.882 108.381 124.424 108.895 122.823C109.467 121.165 109.782 119.478 109.839 117.763V117.505H99.6303C97.1711 117.505 95.1695 117.82 93.6253 118.449C92.1384 119.021 91.0517 119.821 90.3654 120.85C89.6791 121.88 89.336 123.08 89.336 124.453C89.336 125.882 89.6506 127.112 90.2797 128.141C90.9659 129.113 91.9382 129.885 93.1964 130.457C94.4546 131.029 95.9701 131.314 97.743 131.314Z" fill="white"/>
<path d="M147.125 157.131C143.179 157.131 139.69 156.617 136.659 155.587C133.628 154.615 131.283 153.1 129.625 151.042C127.966 148.983 127.137 146.467 127.137 143.494C127.137 141.95 127.48 140.377 128.166 138.776C128.853 137.233 129.968 135.746 131.512 134.316C133.056 132.887 135.144 131.6 137.774 130.457L142.578 134.316C139.662 135.403 137.689 136.689 136.659 138.176C135.687 139.72 135.201 141.207 135.201 142.636C135.201 144.352 135.715 145.781 136.745 146.925C137.774 148.068 139.175 148.926 140.948 149.498C142.779 150.07 144.837 150.355 147.125 150.355C149.355 150.355 151.3 150.041 152.958 149.412C154.617 148.783 155.904 147.897 156.819 146.753C157.734 145.609 158.191 144.266 158.191 142.722C158.191 140.892 157.505 139.348 156.133 138.09C154.76 136.889 152.129 136.175 148.24 135.946C144.98 135.717 142.207 135.403 139.919 135.003C137.689 134.602 135.773 134.116 134.171 133.544C132.627 132.973 131.312 132.344 130.225 131.658C129.196 130.971 128.309 130.257 127.566 129.513V127.541L136.144 118.706L143.093 121.108L133.742 129.771L135.544 125.911C136.173 126.311 136.773 126.711 137.345 127.112C137.917 127.455 138.689 127.769 139.662 128.055C140.634 128.341 141.949 128.598 143.608 128.827C145.266 129.056 147.44 129.285 150.128 129.513C154.016 129.799 157.133 130.485 159.478 131.572C161.88 132.658 163.625 134.116 164.711 135.946C165.798 137.776 166.341 139.949 166.341 142.465C166.341 144.923 165.655 147.268 164.282 149.498C162.967 151.728 160.879 153.558 158.02 154.987C155.217 156.417 151.586 157.131 147.125 157.131ZM147.125 123.938C143.465 123.938 140.348 123.252 137.774 121.88C135.258 120.507 133.313 118.649 131.941 116.305C130.625 113.96 129.968 111.359 129.968 108.5C129.968 105.583 130.625 102.982 131.941 100.694C133.313 98.35 135.287 96.4916 137.86 95.1193C140.434 93.6898 143.522 92.9751 147.125 92.9751C150.728 92.9751 153.788 93.6898 156.304 95.1193C158.878 96.4916 160.822 98.35 162.138 100.694C163.51 102.982 164.196 105.583 164.196 108.5C164.196 111.359 163.51 113.96 162.138 116.305C160.822 118.649 158.878 120.507 156.304 121.88C153.788 123.252 150.728 123.938 147.125 123.938ZM147.125 117.077C149.927 117.077 152.158 116.362 153.816 114.932C155.475 113.446 156.304 111.301 156.304 108.5C156.304 105.698 155.475 103.582 153.816 102.152C152.158 100.666 149.927 99.9225 147.125 99.9225C144.323 99.9225 142.064 100.666 140.348 102.152C138.632 103.582 137.774 105.698 137.774 108.5C137.774 111.301 138.632 113.446 140.348 114.932C142.064 116.362 144.323 117.077 147.125 117.077ZM154.159 100.78L152.101 94.0043H169.858V99.9225L154.159 100.78Z" fill="white"/>
<path d="M196.347 138.262C192.23 138.262 188.57 137.318 185.367 135.431C182.164 133.544 179.648 130.914 177.818 127.541C176.045 124.167 175.158 120.25 175.158 115.79C175.158 111.216 176.045 107.242 177.818 103.868C179.648 100.437 182.164 97.7782 185.367 95.8913C188.57 93.9471 192.287 92.9751 196.519 92.9751C200.751 92.9751 204.383 93.9185 207.414 95.8055C210.445 97.6924 212.79 100.208 214.448 103.353C216.107 106.441 216.936 109.872 216.936 113.646C216.936 114.218 216.908 114.847 216.85 115.533C216.85 116.162 216.822 116.876 216.765 117.677H181.421V111.587H208.358C208.186 107.985 206.985 105.183 204.755 103.182C202.524 101.123 199.75 100.094 196.433 100.094C194.088 100.094 191.944 100.637 189.999 101.724C188.055 102.753 186.482 104.297 185.281 106.355C184.137 108.357 183.565 110.901 183.565 113.989V116.39C183.565 119.592 184.137 122.309 185.281 124.539C186.482 126.711 188.055 128.37 189.999 129.513C191.944 130.6 194.06 131.143 196.347 131.143C199.093 131.143 201.352 130.542 203.125 129.342C204.897 128.141 206.213 126.511 207.071 124.453H215.649C214.906 127.083 213.648 129.456 211.875 131.572C210.102 133.63 207.9 135.26 205.269 136.461C202.696 137.661 199.722 138.262 196.347 138.262Z" fill="white"/>
<path d="M226.467 137.233V94.0043H234.188L234.703 101.381C236.075 98.8074 238.02 96.7775 240.536 95.2909C243.052 93.747 245.941 92.9751 249.2 92.9751C252.632 92.9751 255.577 93.6612 258.036 95.0336C260.496 96.4059 262.411 98.493 263.784 101.295C265.157 104.039 265.843 107.499 265.843 111.673V137.233H257.264V112.531C257.264 108.528 256.378 105.498 254.605 103.439C252.832 101.381 250.258 100.351 246.884 100.351C244.654 100.351 242.652 100.895 240.879 101.981C239.106 103.01 237.676 104.554 236.59 106.613C235.56 108.671 235.046 111.187 235.046 114.16V137.233H226.467Z" fill="white"/>
<path d="M296.804 138.262C292.629 138.262 288.912 137.318 285.652 135.431C282.392 133.487 279.819 130.828 277.931 127.455C276.101 124.081 275.186 120.164 275.186 115.704C275.186 111.187 276.101 107.242 277.931 103.868C279.819 100.437 282.392 97.7782 285.652 95.8913C288.912 93.9471 292.629 92.9751 296.804 92.9751C302.066 92.9751 306.47 94.3474 310.015 97.092C313.561 99.8367 315.82 103.553 316.793 108.242H307.871C307.299 105.726 305.983 103.782 303.925 102.41C301.923 101.037 299.521 100.351 296.719 100.351C294.431 100.351 292.315 100.952 290.37 102.152C288.426 103.296 286.853 105.012 285.652 107.299C284.508 109.529 283.936 112.302 283.936 115.618C283.936 118.077 284.28 120.279 284.966 122.223C285.652 124.11 286.567 125.711 287.711 127.026C288.912 128.341 290.285 129.342 291.829 130.028C293.373 130.657 295.003 130.971 296.719 130.971C298.606 130.971 300.293 130.685 301.78 130.114C303.324 129.485 304.611 128.57 305.64 127.369C306.727 126.168 307.47 124.739 307.871 123.08H316.793C315.82 127.655 313.561 131.343 310.015 134.145C306.47 136.889 302.066 138.262 296.804 138.262Z" fill="white"/>
<path d="M331.806 156.102L342.357 132.429H339.87L322.798 94.0043H332.063L345.617 125.396L359.257 94.0043H368.265L340.813 156.102H331.806Z" fill="white"/>
<path d="M58.8596 133.688C68.6186 157.419 131.084 161.959 107.348 171.716C83.6131 181.473 11.1514 186.839 1.39236 163.108C-8.36665 139.377 35.5441 83.3801 59.2795 73.6229C83.0148 63.8656 49.1005 109.957 58.8596 133.688Z" fill="white"/>
</svg>
