<svg width="122" height="72" viewBox="0 0 122 72" fill="none" xmlns="http://www.w3.org/2000/svg">
<path d="M17.5234 4.77321V0.608276H35.7345V4.77321H17.5234ZM24.2424 22.0729V0.911486H29.0156V22.0729H24.2424Z" fill="white"/>
<path d="M37.9863 22.0729V0H42.6386V22.0729H37.9863ZM47.7448 22.0729V13.6518C47.7448 12.8817 47.5067 12.2586 47.0305 11.7824C46.5543 11.3062 45.9516 11.0681 45.2205 11.0681C44.7146 11.0681 44.2681 11.1741 43.8831 11.388C43.498 11.6001 43.193 11.9051 42.9716 12.2995C42.7484 12.6938 42.6368 13.1459 42.6368 13.6518L40.8435 12.7701C40.8435 11.6149 41.0872 10.6011 41.5728 9.73058C42.0601 8.86002 42.7391 8.18478 43.6096 7.70857C44.4802 7.23237 45.4847 6.99427 46.6194 6.99427C47.7541 6.99427 48.7884 7.23237 49.6589 7.70857C50.5295 8.18478 51.2047 8.84328 51.6809 9.68408C52.1571 10.5249 52.3952 11.5033 52.3952 12.6176V22.0729H47.7429H47.7448Z" fill="white"/>
<path d="M62.6708 22.4077C61.0692 22.4077 59.6462 22.0784 58.3999 21.4199C57.1535 20.7614 56.1751 19.8443 55.4664 18.6687C54.7558 17.4931 54.4023 16.1649 54.4023 14.6861C54.4023 13.2072 54.752 11.8846 55.4515 10.7183C56.1509 9.55384 57.0977 8.63491 58.2938 7.96711C59.4899 7.29745 60.8367 6.96448 62.3378 6.96448C63.839 6.96448 65.0835 7.27885 66.1996 7.90759C67.3138 8.53633 68.1918 9.40875 68.8298 10.523C69.4679 11.6372 69.7879 12.9152 69.7879 14.3531C69.7879 14.6172 69.773 14.8963 69.7413 15.1883C69.7116 15.4822 69.6558 15.8226 69.5739 16.2077L56.8354 16.2375V13.0454L67.5984 13.0156L65.5913 14.3531C65.5708 13.5011 65.4388 12.798 65.1969 12.2399C64.9533 11.6819 64.5942 11.2578 64.118 10.9639C63.6418 10.6699 63.0596 10.523 62.3694 10.523C61.6403 10.523 61.0059 10.6904 60.4684 11.0252C59.9308 11.3601 59.516 11.8307 59.222 12.439C58.9281 13.0473 58.7812 13.7876 58.7812 14.6582C58.7812 15.5287 58.9374 16.2747 59.2518 16.8922C59.5662 17.5117 60.0126 17.986 60.5893 18.3209C61.1678 18.6557 61.8505 18.8231 62.6411 18.8231C63.3703 18.8231 64.0287 18.6966 64.6166 18.4436C65.2044 18.1906 65.7215 17.8112 66.168 17.3033L68.722 19.8574C67.9928 20.7093 67.1111 21.3474 66.0768 21.7733C65.0426 22.1993 63.9078 22.4114 62.6708 22.4114V22.4077Z" fill="white"/>
<path d="M25.5776 72.0001C23.8141 72.0001 22.298 71.7118 21.0331 71.1332C19.7663 70.5547 18.6056 69.6786 17.5527 68.503L20.6536 65.4318C21.3419 66.2224 22.1083 66.8362 22.9491 67.2715C23.7899 67.7068 24.7684 67.9244 25.8826 67.9244C26.8964 67.9244 27.6814 67.7421 28.2394 67.3776C28.7975 67.013 29.0765 66.507 29.0765 65.8578C29.0765 65.27 28.8942 64.7938 28.5296 64.4292C28.165 64.0646 27.6833 63.7502 27.0861 63.4861C26.4872 63.2238 25.8287 62.9689 25.1107 62.7252C24.3908 62.4816 23.6765 62.2044 22.9677 61.89C22.259 61.5757 21.6042 61.1813 21.0071 60.7051C20.4081 60.2289 19.9282 59.6318 19.5636 58.9119C19.199 58.192 19.0167 57.2861 19.0167 56.1904C19.0167 54.8734 19.3366 53.7387 19.9747 52.7845C20.6127 51.8321 21.5 51.1066 22.6347 50.6099C23.7695 50.1132 25.0772 49.8658 26.556 49.8658C28.0349 49.8658 29.43 50.13 30.6763 50.6564C31.9226 51.1828 32.9513 51.9027 33.7623 52.8142L30.6614 55.8854C30.0122 55.2157 29.3593 54.7209 28.7008 54.3954C28.0423 54.0717 27.2963 53.908 26.4667 53.908C25.637 53.908 24.9767 54.0661 24.4912 54.3786C24.0038 54.693 23.762 55.1432 23.762 55.731C23.762 56.2779 23.9443 56.7187 24.3089 57.0536C24.6735 57.3884 25.1553 57.6767 25.7524 57.9204C26.3495 58.1641 27.008 58.4078 27.7279 58.6496C28.4478 58.8933 29.1621 59.176 29.8708 59.5016C30.5795 59.8252 31.2343 60.2363 31.8314 60.733C32.4286 61.2297 32.9103 61.8584 33.2749 62.6174C33.6395 63.3782 33.8218 64.3157 33.8218 65.4299C33.8218 67.478 33.0926 69.0833 31.6324 70.2497C30.1722 71.416 28.1557 71.9982 25.5812 71.9982L25.5776 72.0001Z" fill="white"/>
<path d="M36.4316 71.6671V49.5942H41.0839V71.6671H36.4316ZM46.192 71.6671V63.2461C46.192 62.476 45.9539 61.8528 45.4777 61.3766C45.0015 60.9004 44.3988 60.6623 43.6678 60.6623C43.1618 60.6623 42.7153 60.7683 42.3303 60.9822C41.9452 61.1943 41.6401 61.4994 41.4188 61.8937C41.1956 62.2881 41.0839 62.7401 41.0839 63.2461L39.2908 62.3644C39.2908 61.2092 39.5344 60.1954 40.0199 59.3248C40.5073 58.4543 41.1862 57.779 42.0568 57.3028C42.9274 56.8266 43.9319 56.5885 45.0666 56.5885C46.2013 56.5885 47.2355 56.8266 48.1061 57.3028C48.9767 57.779 49.6519 58.4375 50.1281 59.2783C50.6043 60.1191 50.8424 61.0976 50.8424 62.2118V71.6671H46.1901H46.192Z" fill="white"/>
<path d="M60.9376 72C59.4179 72 58.0432 71.6615 56.8174 70.9806C55.5915 70.3017 54.6224 69.3753 53.9136 68.1978C53.203 67.0222 52.8496 65.7052 52.8496 64.2449C52.8496 62.7847 53.2049 61.4788 53.9136 60.3237C54.6224 59.1685 55.5859 58.2514 56.8025 57.5725C58.019 56.8935 59.3974 56.5531 60.9376 56.5531C62.4779 56.5531 63.8563 56.8879 65.0728 57.5557C66.2894 58.2254 67.2511 59.1425 67.9617 60.3069C68.6704 61.4733 69.0257 62.7847 69.0257 64.2449C69.0257 65.7052 68.6704 67.0222 67.9617 68.1978C67.2529 69.3734 66.2894 70.3017 65.0728 70.9806C63.8563 71.6596 62.4779 72 60.9376 72ZM60.9376 67.7737C61.6073 67.7737 62.1933 67.6267 62.7011 67.3328C63.2071 67.0389 63.5977 66.6241 63.8712 66.0865C64.1446 65.5489 64.2822 64.9369 64.2822 64.2468C64.2822 63.5567 64.1409 62.954 63.8563 62.4387C63.5716 61.9216 63.1829 61.516 62.6862 61.2221C62.1896 60.9282 61.6073 60.7813 60.9376 60.7813C60.268 60.7813 59.7118 60.9282 59.204 61.2221C58.698 61.516 58.3018 61.9271 58.019 62.4536C57.7344 62.98 57.5931 63.5883 57.5931 64.2784C57.5931 64.9685 57.7344 65.5508 58.019 66.0884C58.3018 66.626 58.698 67.0408 59.204 67.3347C59.7099 67.6286 60.2884 67.7755 60.9376 67.7755V67.7737Z" fill="white"/>
<path d="M74.6491 71.6671L69.541 56.8917H74.1022L77.2645 67.6249L75.927 67.6547L79.4242 56.8917H83.1947L86.7216 67.6547L85.3525 67.6249L88.5446 56.8917H93.1057L87.9977 71.6671H84.1973L80.7616 61.451H81.9168L78.4196 71.6671H74.6491Z" fill="white"/>
<path d="M17.7793 45.9669V24.5023H22.5525V45.9669H17.7793ZM21.429 37.1199V33.593H25.9585C26.9109 33.593 27.6457 33.3493 28.1628 32.8638C28.6799 32.3765 28.9385 31.7198 28.9385 30.8883C28.9385 30.1182 28.6855 29.4802 28.1777 28.9723C27.6717 28.4664 26.9407 28.2115 25.9883 28.2115H21.4271V24.5023H26.5352C27.9545 24.5023 29.2008 24.772 30.2741 25.3078C31.3475 25.8454 32.1901 26.5894 32.7984 27.5419C33.4066 28.4943 33.7099 29.5899 33.7099 30.8251C33.7099 32.0602 33.4048 33.1819 32.7984 34.1232C32.1901 35.0663 31.3381 35.801 30.2443 36.3275C29.1506 36.8539 27.8633 37.118 26.3826 37.118H21.4271L21.429 37.1199ZM29.4556 45.9669L22.7664 36.7237L27.1453 35.5388L35.1106 45.9669H29.4556Z" fill="white"/>
<path d="M42.558 46.2701C41.2001 46.2701 39.9892 45.9353 38.9252 45.2675C37.8611 44.5978 37.0203 43.6864 36.4009 42.5312C35.7833 41.376 35.4727 40.059 35.4727 38.5783C35.4727 37.0976 35.7814 35.7806 36.4009 34.6254C37.0185 33.4703 37.8611 32.5588 38.9252 31.8891C39.9892 31.2194 41.2001 30.8865 42.558 30.8865C43.5514 30.8865 44.448 31.0799 45.2479 31.465C46.0478 31.8501 46.7025 32.3821 47.2085 33.061C47.7144 33.74 47.9991 34.5157 48.0605 35.3862V41.7704C47.9991 42.6428 47.72 43.4166 47.2252 44.0956C46.7286 44.7746 46.0738 45.3066 45.2646 45.6916C44.4536 46.0767 43.5514 46.2701 42.558 46.2701ZM43.5012 42.0754C44.4945 42.0754 45.2944 41.7462 45.9026 41.0877C46.5109 40.4292 46.8141 39.594 46.8141 38.5802C46.8141 37.8919 46.6784 37.2836 46.4031 36.7553C46.1296 36.2289 45.7446 35.8178 45.2479 35.5239C44.7512 35.23 44.1782 35.083 43.5309 35.083C42.8836 35.083 42.3088 35.23 41.8121 35.5239C41.3154 35.8178 40.9192 36.2289 40.6272 36.7553C40.3333 37.2818 40.1863 37.89 40.1863 38.5802C40.1863 39.2703 40.3277 39.8469 40.6123 40.3734C40.895 40.8998 41.2913 41.3165 41.7973 41.6197C42.3032 41.9229 42.8706 42.0754 43.4993 42.0754H43.5012ZM46.6318 45.9669V41.9843L47.3313 38.396L46.6318 34.8077V31.1897H51.193V45.9651H46.6318V45.9669Z" fill="white"/>
<path d="M54.4766 45.9668V31.1914H59.1289V45.9668H54.4766ZM63.9319 45.9668V37.3319C63.9319 36.5822 63.7031 36 63.2473 35.5833C62.7916 35.1685 62.2279 34.9602 61.5601 34.9602C61.0932 34.9602 60.6784 35.0569 60.3138 35.2485C59.9492 35.4419 59.6609 35.7098 59.4469 36.0539C59.2349 36.3981 59.127 36.8241 59.127 37.33L57.3338 36.5395C57.3338 35.3638 57.5868 34.3556 58.0946 33.5148C58.6006 32.674 59.2907 32.0248 60.1613 31.5691C61.0318 31.1133 62.0158 30.8845 63.1096 30.8845C64.1439 30.8845 65.0703 31.117 65.8925 31.5839C66.7128 32.0508 67.3676 32.6982 67.8531 33.5297C68.3404 34.3612 68.5823 35.3545 68.5823 36.5097V45.965H63.93L63.9319 45.9668ZM73.3871 45.9668V37.3319C73.3871 36.5822 73.1583 36 72.7026 35.5833C72.2468 35.1685 71.6832 34.9602 71.0154 34.9602C70.5485 34.9602 70.1337 35.0569 69.7691 35.2485C69.4045 35.4419 69.1162 35.7098 68.9022 36.0539C68.6902 36.3981 68.5823 36.8241 68.5823 37.33L65.9073 36.9654C65.9483 35.7098 66.2459 34.6291 66.804 33.7269C67.362 32.8247 68.1005 32.1253 69.0231 31.6286C69.9458 31.1319 70.9838 30.8845 72.1389 30.8845C73.2941 30.8845 74.2818 31.1226 75.1636 31.5988C76.0453 32.075 76.7447 32.754 77.2619 33.6357C77.779 34.5174 78.0375 35.5759 78.0375 36.8129V45.965H73.3853L73.3871 45.9668Z" fill="white"/>
<path d="M80.1669 52.5947C79.0936 52.5947 78.1803 52.4161 77.4306 52.0627C76.681 51.7074 76.0224 51.207 75.4551 50.5578L78.3439 47.6689C78.5672 47.9312 78.7959 48.1191 79.0285 48.2307C79.261 48.3423 79.5307 48.3981 79.8339 48.3981C80.2804 48.3981 80.6487 48.266 80.9445 48.0038C81.2384 47.7396 81.3853 47.3341 81.3853 46.7872V31.1896H86.0376V46.7258C86.0376 47.9219 85.7846 48.9562 85.2768 49.8267C84.7708 50.6973 84.0752 51.3781 83.1934 51.8636C82.3117 52.3491 81.3035 52.5928 80.1688 52.5928L80.1669 52.5947ZM83.7552 29.1527C83.026 29.1527 82.4214 28.9053 81.9452 28.4086C81.469 27.912 81.2309 27.3093 81.2309 26.5987C81.2309 25.8881 81.469 25.2612 81.9452 24.7739C82.4214 24.2865 83.0242 24.0447 83.7552 24.0447C84.4863 24.0447 85.0834 24.2884 85.5484 24.7739C86.0134 25.2594 86.2478 25.8676 86.2478 26.5987C86.2478 27.3297 86.0153 27.912 85.5484 28.4086C85.0815 28.9053 84.4844 29.1527 83.7552 29.1527Z" fill="white"/>
<path d="M95.4916 46.2701C94.1337 46.2701 92.9227 45.9353 91.8587 45.2675C90.7947 44.5978 89.9539 43.6864 89.3345 42.5312C88.7169 41.376 88.4062 40.059 88.4062 38.5783C88.4062 37.0976 88.715 35.7806 89.3345 34.6254C89.9521 33.4703 90.7947 32.5588 91.8587 31.8891C92.9227 31.2194 94.1337 30.8865 95.4916 30.8865C96.485 30.8865 97.3816 31.0799 98.1814 31.465C98.9813 31.8501 99.6361 32.3821 100.142 33.061C100.648 33.74 100.933 34.5157 100.994 35.3862V41.7704C100.933 42.6428 100.654 43.4166 100.159 44.0956C99.6622 44.7746 99.0074 45.3066 98.1982 45.6916C97.3872 46.0767 96.485 46.2701 95.4916 46.2701ZM96.4329 42.0754C97.4262 42.0754 98.2261 41.7462 98.8344 41.0877C99.4426 40.4292 99.7459 39.594 99.7459 38.5802C99.7459 37.8919 99.6101 37.2836 99.3348 36.7553C99.0613 36.2289 98.6762 35.8178 98.1796 35.5239C97.6829 35.23 97.11 35.083 96.4626 35.083C95.8153 35.083 95.2405 35.23 94.7438 35.5239C94.2472 35.8178 93.851 36.2289 93.5589 36.7553C93.265 37.2818 93.118 37.89 93.118 38.5802C93.118 39.2703 93.2594 39.8469 93.544 40.3734C93.8268 40.8998 94.223 41.3165 94.729 41.6197C95.235 41.9229 95.8023 42.0754 96.431 42.0754H96.4329ZM99.5654 45.9669V41.9843L100.265 38.396L99.5654 34.8077V31.1897H104.127V45.9651H99.5654V45.9669Z" fill="white"/>
<path d="M107.41 45.9669V31.1915H112.062V45.9669H107.41ZM117.169 45.9669V37.5459C117.169 36.7758 116.931 36.1526 116.454 35.6764C115.978 35.2002 115.375 34.9621 114.644 34.9621C114.138 34.9621 113.692 35.0681 113.307 35.282C112.922 35.4941 112.617 35.7992 112.395 36.1935C112.172 36.5879 112.061 37.0399 112.061 37.5459L110.267 36.6642C110.267 35.509 110.52 34.4952 111.028 33.6246C111.534 32.7541 112.239 32.0788 113.141 31.6026C114.044 31.1264 115.061 30.8883 116.198 30.8883C117.334 30.8883 118.261 31.1469 119.101 31.664C119.942 32.1811 120.606 32.8657 121.094 33.7158C121.581 34.5677 121.823 35.4997 121.823 36.5135V45.9688H117.17L117.169 45.9669Z" fill="white"/>
<path d="M4.67832 0.119019H0V71.8828H4.67832V0.119019Z" fill="white"/>
</svg>
